<?xml version="1.0" encoding="UTF-8" standalone="no"?>
<!-- Created with Inkscape (http://www.inkscape.org/) -->

<svg
   width="104.346mm"
   height="104.34533mm"
   viewBox="0 0 104.346 104.34533"
   version="1.1"
   id="svg5"
   inkscape:version="1.1 (c4e8f9ed74, 2021-05-24)"
   sodipodi:docname="fiedka.svg"
   inkscape:export-filename="/home/dan/Projects/Fiedka/art/fiedka.png"
   inkscape:export-xdpi="124.63"
   inkscape:export-ydpi="124.63"
   xmlns:inkscape="http://www.inkscape.org/namespaces/inkscape"
   xmlns:sodipodi="http://sodipodi.sourceforge.net/DTD/sodipodi-0.dtd"
   xmlns:xlink="http://www.w3.org/1999/xlink"
   xmlns="http://www.w3.org/2000/svg"
   xmlns:svg="http://www.w3.org/2000/svg">
  <sodipodi:namedview
     id="namedview7"
     pagecolor="#505050"
     bordercolor="#ffffff"
     borderopacity="1"
     inkscape:pageshadow="0"
     inkscape:pageopacity="0"
     inkscape:pagecheckerboard="1"
     inkscape:document-units="mm"
     showgrid="false"
     inkscape:zoom="2.8976696"
     inkscape:cx="170.30927"
     inkscape:cy="118.54354"
     inkscape:window-width="1362"
     inkscape:window-height="708"
     inkscape:window-x="0"
     inkscape:window-y="0"
     inkscape:window-maximized="1"
     inkscape:current-layer="layer6"
     inkscape:lockguides="true"
     inkscape:snap-text-baseline="true"
     inkscape:snap-nodes="false"
     fit-margin-top="0"
     fit-margin-left="0"
     fit-margin-right="0"
     fit-margin-bottom="0">
    <inkscape:grid
       type="xygrid"
       id="grid1580"
       originx="-26.984914"
       originy="-75.52384" />
  </sodipodi:namedview>
  <defs
     id="defs2">
    <linearGradient
       id="linearGradient30712"
       inkscape:swatch="solid">
      <stop
         style="stop-color:#000000;stop-opacity:1;"
         offset="0"
         id="stop30710" />
    </linearGradient>
    <linearGradient
       inkscape:collect="always"
       id="linearGradient7883">
      <stop
         style="stop-color:#000000;stop-opacity:0;"
         offset="0"
         id="stop7881" />
      <stop
         style="stop-color:#000000;stop-opacity:1;"
         offset="1"
         id="stop7879" />
    </linearGradient>
    <linearGradient
       id="linearGradient5848"
       inkscape:swatch="solid">
      <stop
         style="stop-color:#000000;stop-opacity:1;"
         offset="0"
         id="stop5846" />
    </linearGradient>
    <linearGradient
       inkscape:collect="always"
       id="linearGradient4631">
      <stop
         style="stop-color:#000000;stop-opacity:1;"
         offset="0"
         id="stop4627" />
      <stop
         style="stop-color:#000000;stop-opacity:0;"
         offset="1"
         id="stop4629" />
    </linearGradient>
    <linearGradient
       inkscape:collect="always"
       id="linearGradient4577">
      <stop
         style="stop-color:#000000;stop-opacity:1;"
         offset="0"
         id="stop4573" />
      <stop
         style="stop-color:#000000;stop-opacity:0;"
         offset="1"
         id="stop4575" />
    </linearGradient>
    <rect
       x="272.02625"
       y="536.25531"
       width="119.67674"
       height="35.014671"
       id="rect21935" />
    <linearGradient
       id="linearGradient5255"
       inkscape:swatch="solid">
      <stop
         style="stop-color:#d04220;stop-opacity:1;"
         offset="0"
         id="stop5253" />
    </linearGradient>
    <linearGradient
       id="linearGradient5213"
       inkscape:swatch="solid">
      <stop
         style="stop-color:#f1ed4a;stop-opacity:1;"
         offset="0"
         id="stop5211" />
    </linearGradient>
    <marker
       style="overflow:visible"
       id="Arrow1Lstart"
       refX="0"
       refY="0"
       orient="auto"
       inkscape:stockid="Arrow1Lstart"
       inkscape:isstock="true">
      <path
         transform="matrix(0.8,0,0,0.8,10,0)"
         style="fill:context-stroke;fill-rule:evenodd;stroke:context-stroke;stroke-width:1pt"
         d="M 0,0 5,-5 -12.5,0 5,5 Z"
         id="path4781" />
    </marker>
    <rect
       x="272.02625"
       y="536.25531"
       width="115.22543"
       height="34.877171"
       id="rect21935-6" />
    <linearGradient
       inkscape:collect="always"
       xlink:href="#linearGradient7883"
       id="linearGradient4579"
       x1="48.460571"
       y1="139.96445"
       x2="71.025627"
       y2="139.96445"
       gradientUnits="userSpaceOnUse" />
    <linearGradient
       inkscape:collect="always"
       xlink:href="#linearGradient4631"
       id="linearGradient4633"
       x1="57.271339"
       y1="130.79987"
       x2="79.280403"
       y2="130.79987"
       gradientUnits="userSpaceOnUse" />
    <linearGradient
       inkscape:collect="always"
       xlink:href="#linearGradient7883"
       id="linearGradient5660"
       x1="78.777809"
       y1="130.90184"
       x2="100.83051"
       y2="130.90184"
       gradientUnits="userSpaceOnUse" />
    <linearGradient
       inkscape:collect="always"
       xlink:href="#linearGradient7883"
       id="linearGradient7847"
       x1="82.814812"
       y1="137.47221"
       x2="106.53584"
       y2="137.47221"
       gradientUnits="userSpaceOnUse" />
    <linearGradient
       inkscape:collect="always"
       xlink:href="#linearGradient4577"
       id="linearGradient1863"
       gradientUnits="userSpaceOnUse"
       x1="48.460571"
       y1="139.96445"
       x2="71.025627"
       y2="139.96445"
       gradientTransform="matrix(-1,0,0,1,155.10698,-3.3604536)" />
    <linearGradient
       inkscape:collect="always"
       xlink:href="#linearGradient4631"
       id="linearGradient32539"
       x1="48.370255"
       y1="132.668"
       x2="75.596268"
       y2="132.668"
       gradientUnits="userSpaceOnUse" />
    <linearGradient
       inkscape:collect="always"
       xlink:href="#linearGradient4631"
       id="linearGradient1006"
       gradientUnits="userSpaceOnUse"
       x1="48.370255"
       y1="132.668"
       x2="75.596268"
       y2="132.668"
       gradientTransform="rotate(180,81.457791,120.84454)" />
    <linearGradient
       inkscape:collect="always"
       xlink:href="#linearGradient4577"
       id="linearGradient3344"
       gradientUnits="userSpaceOnUse"
       gradientTransform="matrix(1,0,0,-1,-1.4240901,237.27449)"
       x1="48.460571"
       y1="139.96445"
       x2="71.025627"
       y2="139.96445" />
  </defs>
  <g
     inkscape:groupmode="layer"
     id="layer3"
     inkscape:label="bg"
     style="display:inline"
     transform="translate(-26.984913,-75.523838)">
    <ellipse
       style="display:inline;fill:#122d12;fill-opacity:1;stroke:#f1ed4a;stroke-width:1.5;stroke-linecap:round;stroke-linejoin:round;stroke-miterlimit:4;stroke-dasharray:none;stroke-opacity:1;paint-order:stroke fill markers"
       id="path19326"
       cx="79.157913"
       cy="127.6965"
       rx="51.423"
       ry="51.422665" />
  </g>
  <g
     inkscape:groupmode="layer"
     id="layer5"
     inkscape:label="chip"
     transform="translate(-26.984913,-75.523838)">
    <g
       id="g985"
       transform="matrix(0.74314483,0.4728259,-0.66913061,0.52512636,121.21804,39.803833)">
      <rect
         style="display:inline;fill:#121212;fill-opacity:1;stroke:#f1ed4a;stroke-width:2.2;stroke-linecap:round;stroke-linejoin:bevel;stroke-miterlimit:4;stroke-dasharray:none;stroke-opacity:1;paint-order:markers stroke fill"
         id="rect846"
         width="30.083355"
         height="31.760468"
         x="63.762188"
         y="135.28983" />
      <rect
         style="display:inline;fill:none;stroke:#f1ed4a;stroke-width:1.5;stroke-linecap:round;stroke-linejoin:bevel;stroke-opacity:1;paint-order:markers stroke fill"
         id="rect1079-5"
         width="7.6418953"
         height="3.7654572"
         x="94.645912"
         y="137.77669" />
      <rect
         style="display:inline;fill:none;stroke:#f1ed4a;stroke-width:1.5;stroke-linecap:round;stroke-linejoin:bevel;stroke-opacity:1;paint-order:markers stroke fill"
         id="rect1079-3-3"
         width="7.5601854"
         height="3.7654572"
         x="94.716545"
         y="145.32443" />
      <rect
         style="display:inline;fill:none;stroke:#f1ed4a;stroke-width:1.5;stroke-linecap:round;stroke-linejoin:bevel;stroke-opacity:1;paint-order:markers stroke fill"
         id="rect1079-6-5"
         width="7.6198158"
         height="3.7654572"
         x="94.659325"
         y="152.94644" />
      <rect
         style="display:inline;fill:none;stroke:#f1ed4a;stroke-width:1.5;stroke-linecap:round;stroke-linejoin:bevel;stroke-opacity:1;paint-order:markers stroke fill"
         id="rect1079-3-7-6"
         width="7.6564851"
         height="3.7654572"
         x="94.621498"
         y="160.49419" />
      <rect
         style="display:inline;fill:none;stroke:#f1ed4a;stroke-width:1.5;stroke-linecap:round;stroke-linejoin:bevel;stroke-opacity:1;paint-order:markers stroke fill"
         id="rect1079-5-2"
         width="7.6586728"
         height="3.7654572"
         x="55.354286"
         y="137.55878" />
      <rect
         style="display:inline;fill:none;stroke:#f1ed4a;stroke-width:1.5;stroke-linecap:round;stroke-linejoin:bevel;stroke-opacity:1;paint-order:markers stroke fill"
         id="rect1079-3-3-9"
         width="7.6609426"
         height="3.7654572"
         x="55.343201"
         y="145.10652" />
      <rect
         style="display:inline;fill:none;stroke:#f1ed4a;stroke-width:1.5;stroke-linecap:round;stroke-linejoin:bevel;stroke-opacity:1;paint-order:markers stroke fill"
         id="rect1079-6-5-1"
         width="7.6778407"
         height="3.7654572"
         x="55.345619"
         y="152.72853" />
      <rect
         style="display:inline;fill:none;stroke:#f1ed4a;stroke-width:1.5;stroke-linecap:round;stroke-linejoin:bevel;stroke-opacity:1;paint-order:markers stroke fill"
         id="rect1079-3-7-6-2"
         width="7.6777143"
         height="3.7654572"
         x="55.344452"
         y="160.27628" />
      <circle
         style="display:inline;fill:#f1ed4a;fill-opacity:1;stroke:#f1ed4a;stroke-width:2.53569;stroke-linecap:round;stroke-linejoin:bevel;stroke-opacity:1;paint-order:markers stroke fill"
         id="path1381"
         cx="88.285629"
         cy="162.18056"
         r="0.67483759" />
      <text
         xml:space="preserve"
         transform="matrix(0,-0.26458333,0.26458333,0,-66.256384,238.01529)"
         id="text21933"
         style="font-style:normal;font-weight:normal;font-size:18.6667px;line-height:1.25;font-family:sans-serif;white-space:pre;shape-inside:url(#rect21935);display:inline;fill:#f1ed4a;fill-opacity:1;stroke:none"><tspan
           x="272.02539"
           y="552.77151"
           id="tspan11252">25Е128ДКА</tspan></text>
      <text
         xml:space="preserve"
         transform="matrix(0,-0.26458333,0.26458333,0,-75.080016,225.49919)"
         id="text21933-1"
         style="font-style:normal;font-weight:normal;font-size:21.3333px;line-height:1.25;font-family:sans-serif;white-space:pre;shape-inside:url(#rect21935-6);display:inline;fill:#f1ed4a;fill-opacity:1;stroke:none"><tspan
           x="272.02539"
           y="555.13083"
           id="tspan11254">Ф</tspan></text>
    </g>
  </g>
  <g
     inkscape:groupmode="layer"
     id="layer2"
     inkscape:label="tentacles"
     style="display:inline"
     transform="translate(-26.984913,-75.523838)">
    <path
       id="path4220-3-6-2-3-7-6"
       style="color:#000000;display:inline;fill:#f1ed4a;stroke:url(#linearGradient3344);stroke-linecap:round;stroke-linejoin:round;stroke-miterlimit:4.5;-inkscape-stroke:none;paint-order:stroke markers fill"
       d="m 68.274145,118.73082 c 1.302953,-0.38258 0.80038,0.4011 0.572233,-0.88738 -0.45225,-2.00942 -6.286282,-3.27317 -9.922677,-3.28631 -5.612703,0.69602 -9.226474,3.37446 -12.783018,-0.92115 -2.133843,-5.34992 -0.890665,-5.88384 0.569529,-11.41018 0.872134,-2.728573 3.077025,-6.857615 4.399945,-8.180535 1.32291,-1.32292 0,0 2.64583,-1.32292 1.32292,-1.32291 -2.46701,-2.1679 -3.96875,-1.32291 -3.1099,1.58261 -4.23107,2.27824 -5.78097,5.74761 -0.95918,1.981 -2.441314,6.171815 -3.567679,11.394195 -0.503442,5.20659 0.789029,6.92817 2.199651,9.4644 3.772044,3.32524 4.562734,3.37325 11.020661,2.35803 4.666064,-0.81708 11.785696,-1.95996 12.994546,-0.20159 0.931726,1.03981 0.847281,-1.20417 0.972084,-1.24081 z"
       sodipodi:nodetypes="sccccccccccccss" />
    <path
       id="path4220-3-6-2-3"
       style="color:#000000;display:inline;fill:#f1ed4a;stroke:url(#linearGradient4579);stroke-linecap:round;stroke-linejoin:round;stroke-miterlimit:4.5;-inkscape-stroke:none;paint-order:stroke markers fill"
       d="m 70.183488,119.51165 c 1.302953,0.38258 1.46974,0.33232 1.241593,1.6208 -1.235608,1.67247 -10.299622,2.34859 -11.751689,3.50472 -1.157474,0.8484 -3.412982,2.10264 -3.559453,7.76613 0.675088,2.57329 1.142283,3.29765 3.542999,4.68487 l 5.911452,1.77402 c 1.548687,0.61189 4.921056,-0.31922 6.883255,1.64501 1.322917,1.32291 -2.467011,2.1679 -3.968751,1.32291 -5.36946,0.40659 -4.125172,-0.41211 -9.450461,-0.49381 l -5.617309,-2.78865 c -1.936304,-3.11282 -1.600856,-1.90497 -2.522765,-8.01389 0.739998,-5.59006 3.702727,-8.48245 6.302121,-10.30842 2.690396,-2.17588 9.864352,-1.97651 11.368309,-2.14495 0.931726,-1.03981 0.847282,1.20417 0.972084,1.24081 z"
       sodipodi:nodetypes="sccccccccccccss" />
    <path
       id="path4220-3-6-2"
       style="color:#000000;display:inline;fill:#f1ed4a;stroke:url(#linearGradient32539);stroke-linecap:round;stroke-linejoin:round;stroke-miterlimit:4.5;stroke-opacity:1;-inkscape-stroke:none;paint-order:stroke markers fill"
       d="m 72.385478,119.67167 c 0,-1.35797 2.923443,1.40114 2.695296,2.68962 -0.243514,2.03039 -2.709336,3.5272 -4.325117,4.80211 -4.715612,2.2915 -9.251808,3.32211 -12.747533,5.11552 -2.220187,1.13902 -4.328248,2.33083 -4.808429,5.16725 0.50872,3.04953 1.59636,3.18527 3.04548,3.86669 2.522054,1.68352 6.564348,1.75488 8.795453,2.31559 0.905155,0.13885 2.42379,0.31013 2.645831,1.32292 -0.273653,1.17534 -1.745455,1.16066 -4.194973,1.00342 -3.314394,-0.27455 -5.514668,-0.19772 -6.899699,-0.82604 -3.060715,-1.7167 -5.620919,-2.08212 -6.843033,-5.10714 -0.622043,-1.73167 -1.546324,-2.90731 -0.228604,-6.51839 2.905718,-4.45176 11.447113,-7.08231 19.668788,-11.39199 1.093257,-1.53884 1.247491,-2.12216 2.223367,-2.59603 0.128671,-0.0215 0.973177,0.28654 0.973177,0.15648 z"
       sodipodi:nodetypes="sccsccccccccccss" />
    <path
       id="path4220-3-6-2-7"
       style="color:#000000;display:inline;fill:#f1ed4a;stroke:url(#linearGradient1006);stroke-linecap:round;stroke-linejoin:round;stroke-miterlimit:4.5;stroke-opacity:1;-inkscape-stroke:none;paint-order:stroke markers fill"
       d="m 90.530081,122.0174 c 0,1.35797 -2.923443,-1.40114 -2.695296,-2.68962 0.243514,-2.03039 2.709336,-3.5272 4.325117,-4.80211 4.715612,-2.2915 8.728228,-2.48882 12.223958,-4.28223 2.22018,-1.13902 7.06671,-1.05818 7.3194,-6.0646 -0.50872,-3.04953 -0.61073,-4.523486 -2.04069,-6.154721 -2.4938,-2.505213 -6.01957,-1.331675 -8.25068,-1.892385 -0.90515,-0.13885 -2.423786,-0.31013 -2.645827,-1.32292 0.273653,-1.17534 1.745457,-1.16066 4.194977,-1.00342 3.31439,0.27455 5.51466,0.19772 6.89969,0.82604 3.06072,1.7167 4.2822,3.966617 5.50432,6.991646 0.62204,1.73167 0.22124,4.0841 -1.0965,7.69518 -2.90572,4.45176 -12.32025,5.9499 -20.541929,10.25958 -1.093257,1.53884 -1.247491,2.12216 -2.223367,2.59603 -0.128671,0.0215 -0.973177,-0.28654 -0.973177,-0.15648 z"
       sodipodi:nodetypes="sccsccccccccccss" />
    <path
       id="path4220"
       style="color:#000000;display:inline;fill:#f1ed4a;stroke:url(#linearGradient4633);stroke-linecap:round;stroke-linejoin:round;stroke-miterlimit:4.5;-inkscape-stroke:none;paint-order:stroke markers fill"
       d="m 76.904297,121.10547 c -1.510996,0.0861 -3.174175,1.55941 -3.302358,2.86134 -1.161534,0.98052 -8.633962,3.57963 -14.24517,9.58615 -1.050744,1.03788 -3.668129,3.05662 -5.322528,5.03439 -1.131395,1.35254 -2.311594,2.71164 -3.033607,4.36875 -1.252657,2.72111 -0.934248,3.85582 -0.102088,5.49242 0.111583,1.30922 4.64464,5.4744 5.570412,4.37972 0.669943,-1.8889 -2.166324,-3.79892 -2.018754,-5.7518 1.271505,-2.77849 0.523443,-2.33171 2.664126,-4.45246 3.929334,-3.3101 2.951682,-2.96258 5.345544,-4.93977 7.432847,-6.04573 16.353545,-9.81533 17.236515,-12.56889 0.418901,-1.23979 -0.0175,-2.36952 -1.089201,-3.41076 -0.446822,-0.4255 -1.090112,-0.63786 -1.702891,-0.59909 z"
       sodipodi:nodetypes="cccsccccccccc" />
    <path
       id="path4220-3-6-2-3-7"
       style="color:#000000;display:inline;fill:#f1ed4a;stroke:url(#linearGradient1863);stroke-linecap:round;stroke-linejoin:round;stroke-miterlimit:4.5;-inkscape-stroke:none;paint-order:stroke markers fill"
       d="m 85.40874,115.18323 c -1.302953,0.38258 -1.46974,0.33232 -1.241593,1.6208 1.235608,1.67247 4.027004,3.29184 4.965279,4.9302 3.963264,4.42229 15.499894,8.42988 16.991864,18.12677 1.11259,7.3575 0.40349,10.71527 0.40349,12.03818 0,2.64584 -1.80388,4.23868 -3.1268,5.5616 -1.32291,1.32292 0,0 -2.64583,1.32292 -1.322917,1.32291 2.46701,2.1679 3.96875,1.32291 3.1099,-1.58261 4.23107,-2.27824 5.78097,-5.74761 0.95918,-1.981 1.98734,-6.58896 2.28495,-8.74298 -0.004,-7.41744 -0.64174,-7.4694 -1.77342,-11.17286 -3.36599,-7.43673 -12.746876,-11.2961 -19.405062,-17.12076 -0.805364,-0.66892 -3.077942,-3.40199 -4.581899,-3.57043 -0.931726,-1.03981 -0.847281,1.20417 -0.972084,1.24081 z"
       sodipodi:nodetypes="sccccccccccccss" />
    <path
       id="path4220-3-6"
       style="color:#000000;display:inline;fill:#f1ed4a;stroke:url(#linearGradient7847);stroke-linecap:round;stroke-linejoin:round;stroke-miterlimit:4.5;stroke-opacity:1;-inkscape-stroke:none;paint-order:stroke markers fill"
       d="m 85.418095,119.50827 c 0,-1.35797 -3.12647,0.96583 -2.898323,2.25431 0.243514,2.03039 3.44153,3.96251 5.057311,5.23742 7.710569,3.74687 8.372975,8.79944 9.717653,11.14144 1.420777,2.76883 -0.407914,14.44762 -0.407914,15.77053 0,2.64584 -1.85916,10.05428 -3.182077,11.3772 -1.32291,1.32292 0,0 -2.64583,1.32292 -1.322917,1.32291 2.467013,2.1679 3.968747,1.32291 2.92478,-2.97328 2.86612,-1.60686 4.41602,-5.07623 0.959178,-1.981 3.166108,-9.94777 3.463718,-12.10179 0,-2.64583 1.76373,-9.16497 -0.17144,-15.69401 -2.13717,-4.33907 -5.381859,-9.01906 -13.603534,-13.32874 -0.703385,-1.27722 -3.323628,-2.21055 -3.323628,-2.21055 -0.128671,-0.0215 -0.390703,0.11467 -0.390703,-0.0154 z"
       sodipodi:nodetypes="sccccccccccccss" />
    <path
       id="path4220-3"
       style="color:#000000;display:inline;fill:#f1ed4a;stroke:url(#linearGradient5660);stroke-linecap:round;stroke-linejoin:round;stroke-miterlimit:4.5;-inkscape-stroke:none;paint-order:stroke markers fill"
       d="m 80.896484,121.20898 c -1.35787,0.0162 -3.188514,0.7889 -2.960367,2.07738 0.243514,2.03039 8.43357,15.33264 10.691724,21.21473 2.412289,4.62847 3.243878,6.55078 3.406713,9.79089 0.255762,3.34564 -0.664264,6.22628 -1.585229,9.64979 -0.187777,1.73636 -0.844916,2.80496 -1.543363,4.20349 -0.442111,1.86566 -3.96171,2.06142 -3.651733,3.54438 2.041229,1.64219 5.23187,-0.0393 6.130601,-1.37284 1.895158,-2.30941 2.690146,-2.89882 3.427206,-5.02933 2.095768,-2.98791 2.331209,-9.34687 2.251035,-14.08621 0.01747,-2.17852 -0.831517,-4.82488 -1.280278,-6.70913 -3.314998,-10.03886 -11.59362,-19.88158 -11.839703,-21.18092 -0.159246,-1.28882 -1.151946,-1.91838 -2.655903,-2.08682 -0.128671,-0.0215 -0.260649,-0.0173 -0.390703,-0.0154 z"
       sodipodi:nodetypes="sccccccccccccss" />
  </g>
  <g
     inkscape:groupmode="layer"
     id="layer6"
     inkscape:label="parts">
    <g
       id="g3155"
       transform="matrix(1.1001779,-0.31705275,0.34477486,1.0117166,-23.397849,41.190071)">
      <rect
         style="fill:#000000;fill-opacity:1;stroke:#000000;stroke-width:1.5;stroke-linecap:round;stroke-linejoin:round;stroke-miterlimit:4;stroke-dasharray:none;paint-order:markers stroke fill"
         id="rect2419"
         width="4.2794638"
         height="2.0327954"
         x="86.719666"
         y="5.232305" />
      <rect
         style="fill:#f0f0f0;fill-opacity:1;stroke:#f0f0f0;stroke-width:1.49969;stroke-linecap:round;stroke-linejoin:round;stroke-miterlimit:4;stroke-dasharray:none;stroke-opacity:1;paint-order:markers stroke fill"
         id="rect2753"
         width="0.0054219253"
         height="1.9350882"
         x="86.714844"
         y="5.2807059" />
      <rect
         style="fill:#f0f0f0;fill-opacity:1;stroke:#f0f0f0;stroke-width:1.49969;stroke-linecap:round;stroke-linejoin:round;stroke-miterlimit:4;stroke-dasharray:none;stroke-opacity:1;paint-order:markers stroke fill"
         id="rect2753-5"
         width="0.0054219253"
         height="1.9350882"
         x="90.999847"
         y="5.2728448" />
    </g>
    <g
       id="g10117"
       transform="translate(0,2.1166667)">
      <rect
         style="fill:#aa7b00;fill-opacity:1;stroke:#aa7b00;stroke-width:1.65937;stroke-linecap:round;stroke-linejoin:round;stroke-miterlimit:4;stroke-dasharray:none;stroke-opacity:1;paint-order:markers stroke fill"
         id="rect2419-0"
         width="4.8997784"
         height="2.1727533"
         x="23.525139"
         y="9.1665306"
         transform="matrix(0.9616269,0.27436053,-0.22804178,0.97365135,0,0)" />
      <rect
         style="fill:#f0f0f0;fill-opacity:1;stroke:#f0f0f0;stroke-width:1.65903;stroke-linecap:round;stroke-linejoin:round;stroke-miterlimit:4;stroke-dasharray:none;stroke-opacity:1;paint-order:markers stroke fill"
         id="rect2753-9"
         width="0.006207841"
         height="2.0683188"
         x="23.519617"
         y="9.2182636"
         transform="matrix(0.9616269,0.27436053,-0.22804178,0.97365135,0,0)" />
      <rect
         style="fill:#f0f0f0;fill-opacity:1;stroke:#f0f0f0;stroke-width:1.65903;stroke-linecap:round;stroke-linejoin:round;stroke-miterlimit:4;stroke-dasharray:none;stroke-opacity:1;paint-order:markers stroke fill"
         id="rect2753-5-3"
         width="0.006207841"
         height="2.0683188"
         x="28.425739"
         y="9.2098618"
         transform="matrix(0.9616269,0.27436053,-0.22804178,0.97365135,0,0)" />
    </g>
  </g>
  <g
     inkscape:groupmode="layer"
     id="layer4"
     inkscape:label="head"
     style="display:inline"
     transform="translate(-26.984913,-75.523838)">
    <g
       id="g1465"
       transform="matrix(0.84394822,0,0,1,11.841157,0)">
      <circle
         style="display:inline;fill:#f1ed4a;fill-opacity:1;stroke:#f1ed4a;stroke-width:0.253725;stroke-linecap:round;stroke-linejoin:round;stroke-miterlimit:4.5;stroke-dasharray:none;stroke-opacity:1;paint-order:stroke markers fill"
         id="path11443"
         sodipodi:type="arc"
         sodipodi:cx="79.295799"
         sodipodi:cy="103.69662"
         sodipodi:rx="20.076952"
         sodipodi:ry="20.076952"
         sodipodi:start="0"
         sodipodi:end="3.1416692"
         sodipodi:arc-type="slice"
         d="m 99.372751,103.69662 a 20.076952,20.076952 0 0 1 -10.038919,17.3874 20.076952,20.076952 0 0 1 -20.077396,-7.6e-4 20.076952,20.076952 0 0 1 -10.037589,-17.38818 l 20.076952,0.002 z" />
      <ellipse
         style="fill:#f1ed4a;fill-opacity:1;stroke:#f1ed4a;stroke-width:1.5;stroke-linecap:round;stroke-linejoin:round;stroke-miterlimit:4.5;stroke-dasharray:none;stroke-opacity:1;paint-order:stroke markers fill"
         id="path289"
         ry="20.344528"
         rx="20.40975"
         cy="102.68434"
         cx="79.363754" />
    </g>
  </g>
  <g
     inkscape:label="face"
     inkscape:groupmode="layer"
     id="layer1"
     style="display:inline"
     transform="translate(-26.984913,-75.523838)">
    <ellipse
       style="fill:#050505;fill-opacity:1;stroke:#f1ed4a;stroke-width:0.38309;stroke-linecap:round;stroke-linejoin:round;stroke-miterlimit:4.5;stroke-dasharray:none;stroke-opacity:1;paint-order:stroke markers fill"
       id="path14609"
       ry="4.10325"
       rx="3.0621011"
       cy="110.01725"
       cx="65.37397" />
    <ellipse
       style="fill:#050505;fill-opacity:1;stroke:#f1ed4a;stroke-width:0.38309;stroke-linecap:round;stroke-linejoin:round;stroke-miterlimit:4.5;stroke-dasharray:none;stroke-opacity:1;paint-order:stroke markers fill"
       id="path14609-6"
       ry="4.10325"
       rx="3.0621011"
       cy="110.17138"
       cx="92.221703" />
  </g>
</svg>
